<?xml version="1.0" encoding="UTF-8"?>
<svg id="Layer_1" xmlns="http://www.w3.org/2000/svg" version="1.1" viewBox="0 0 356.1 79.4">
  <!-- Generator: Adobe Illustrator 29.3.1, SVG Export Plug-In . SVG Version: 2.1.0 Build 151)  -->
  <defs>
    <style>
      .st0 {
        fill: #6352a3;
      }

      .st1 {
        fill: #664da0;
      }

      .st2 {
        fill: #fff;
      }
    </style>
  </defs>
  <g>
    <path class="st1" d="M25.6,6.5c.3.1.6,0,.9,0,2.9.2,5.8,1.5,7.8,3.6.1,0,.7-.7.8-.8,1.7-1.4,3.8-2.3,5.9-2.7l1.9-.2h.7l2,.2c6.6,1.1,10.7,7.1,10.2,13.6.5.3,1,.6,1.4.9,2.9,2,4.4,5.5,4.4,9,2.3,1.8,3.9,4.3,4.4,7.2s0,.8.2,1.2c0,.4,0,.9,0,1.3s-.2,1.4-.3,2c-.4,1.7-1.3,3.2-2.4,4.5,2.5,7.8-1.8,16.2-9.4,18.9-1.9,5.2-7.3,8.7-12.9,7.6s-5.2-2.1-7-4.2c-1.9,2.3-4.8,4-7.9,4.4-5.2.5-10.2-3-11.9-7.8-7.6-2.6-11.9-11.1-9.5-18.9-4.3-4.8-3.2-12.4,1.9-16.1-.1-4,2-8.1,5.7-9.8-.2-4.8,1.9-9.8,6.2-12.2s3.9-1.6,6-1.7h.7ZM9.6,49.5c-.6,4.4,1.8,8.8,5.9,10.5s2.8.5,3.4,2,.5,2.2,1.7,3.6c3.7,4.2,9.9,2,11.1-3.1V16.3c-.4-4.1-5.4-5.3-8.8-4.4s-5.1,4-5.2,7.3c1.8,0,5.5.8,5.8,3s-.6,2.7-1.9,3-1.8-.4-2.9-.7c-3.3-.8-6.5,1.3-6.7,4.8s.6,2,0,3.3-2,1.4-3,2.4c-3,2.9-1.8,7.6,1.8,9.5s2.7.7,4.6.6,3.6,2.5,2.1,4.3-4.7,1.1-6.3.7-1.1-.4-1.7-.5ZM50.8,19.3c0-2.8-1.4-5.7-4-6.9s-9.2-.6-9.9,3.7v46.6c1.4,5,7.4,7.1,11.1,2.9s1.1-2.1,1.7-3.6,1.8-1.4,3-1.8c2.7-1,5.1-3.4,5.9-6.3s.5-2.9.4-4.4c-2,.7-4.1,1.1-6.2.7-3.7-.6-2.9-5.3.3-5.2s3.1.3,4.9-.8c3.5-2.1,4.3-6.9,1.1-9.6s-2.1-.8-2.6-2.1-.1-1.3,0-2.1c.6-4-3.1-7-7-5.7s-.9.5-1.4.6c-2.8.6-4.4-3.2-1.7-4.8s2.9-1.1,4.4-1.2Z"/>
    <g>
      <path class="st2" d="M50.8,19.3c-1.5,0-3.1.4-4.4,1.2-2.7,1.6-1.1,5.4,1.7,4.8s1-.4,1.4-.6c3.9-1.3,7.5,1.7,7,5.7s-.4,1.2,0,2.1,1.7,1.3,2.6,2.1c3.2,2.7,2.4,7.5-1.1,9.6s-2.9.9-4.9.8c-3.2-.2-4.1,4.5-.3,5.2s4.2,0,6.2-.7c.2,1.5,0,3-.4,4.4-.9,2.8-3.2,5.2-5.9,6.3s-2.4.4-3,1.8-.5,2.2-1.7,3.6c-3.7,4.2-9.7,2.1-11.1-2.9V16c.7-4.3,6.5-5.3,9.9-3.7s4.1,4.2,4,6.9ZM46.5,29.5c-4.7.4-7.3,6-4.9,10s5.9.8,4.7-2.1-.5-.7-.5-1.4c0-1.1,1-1.6,2-1.3s.5.4.8.6c2.5,2.1,5.8-1.1,3.5-3.7s-3.7-2.3-5.7-2.1ZM41.9,47.4c-1.6,0-2.6,1.5-2.4,3.1.6,4.1,5.7,7.7,9.7,7.4s3.2-4.6-.1-5.1-2.6-.4-3.7-1.8-.8-2.3-1.8-3-1.1-.6-1.7-.5Z"/>
      <path class="st1" d="M46.5,29.5c2-.2,4.3.5,5.7,2.1,2.3,2.6-1,5.9-3.5,3.7s-.3-.5-.8-.6c-1-.4-2,.1-2,1.3s.3.8.5,1.4c1.2,2.9-2.9,5.1-4.7,2.1s.2-9.5,4.9-10Z"/>
      <path class="st1" d="M41.9,47.4c.6,0,1.2.2,1.7.5.9.7,1,2,1.8,3,1.2,1.4,2.1,1.5,3.7,1.8,3.4.5,2.9,4.9.1,5.1-4,.3-9.1-3.3-9.7-7.4s.8-3,2.4-3.1Z"/>
    </g>
    <g>
      <path class="st2" d="M9.6,49.5c.6.1,1.1.4,1.7.5,1.7.4,5.1.7,6.3-.7s.1-4.4-2.1-4.3-2.8.3-4.6-.6c-3.6-1.8-4.7-6.5-1.8-9.5s2.4-1.1,3-2.4-.1-2.1,0-3.3c.2-3.4,3.4-5.6,6.7-4.8s1.7,1,2.9.7,2.2-1.6,1.9-3c-.3-2.2-4-2.9-5.8-3,.1-3.3,1.9-6.4,5.2-7.3s8.4.3,8.8,4.4v46.1c-1.2,5.1-7.4,7.3-11.1,3.1s-1.1-2.1-1.7-3.6-2.1-1.4-3.4-2c-4.1-1.8-6.5-6.1-5.9-10.5ZM23.6,28.2c-1.8.2-2.8,2.2-2,3.7s.4.6.6.9c.7,1.6,0,3.4-1.7,3.9s-1.2,0-1.9.1c-2.9.3-3.2,4.9.6,5.2s8.1-3,8.3-7.1-.9-7-4-6.7ZM26.1,48.7c-4.1.4-7.5,4.8-7.1,8.9s2.7,3,4.3,1.6.5-2.4,1.2-3.7c1-2,2.7-1.3,3.8-2.5,1.6-1.7.2-4.5-2.2-4.3Z"/>
      <path class="st1" d="M23.6,28.2c3.1-.3,4.1,4.4,4,6.7-.3,4.1-4.3,7.4-8.3,7.1s-3.5-4.8-.6-5.2,1.2.1,1.9-.1c1.7-.5,2.4-2.3,1.7-3.9s-.4-.6-.6-.9c-.8-1.6.2-3.5,2-3.7Z"/>
      <path class="st1" d="M26.1,48.7c2.3-.2,3.7,2.5,2.2,4.3s-2.8.5-3.8,2.5,0,2.6-1.2,3.7-4.1.4-4.3-1.6c-.4-4,3-8.5,7.1-8.9Z"/>
    </g>
  </g>
  <g>
    <path class="st0" d="M69,63.3l16.9-47.4h10.1l16.8,47.4h-11l-3.3-10h-15.3l-3.4,10h-10.8ZM86.2,44.7h9.3l-3.4-10.1c-.5-1.6-1.1-3.5-1.3-4.6-.2,1.1-.7,2.9-1.3,4.6l-3.4,10.1Z"/>
    <path class="st0" d="M111.2,31.4h10.6l3.9,11.2c1.6,4.7,2.9,8.7,3.1,10.2.4-1.9,1.8-6,3.4-10.2l4.3-11.2h10.2l-13.4,32h-9.7l-12.5-32Z"/>
    <path class="st0" d="M165.1,30.4c10.2,0,17.6,6.8,17.6,16.9s-7.4,16.8-17.6,16.8-17.7-6.7-17.7-16.8,7.4-16.9,17.7-16.9ZM165.1,55.3c4.5,0,7.7-3.2,7.7-8.1s-3.1-8-7.7-8-7.7,3.2-7.7,8,3.1,8.1,7.7,8.1Z"/>
    <path class="st0" d="M187,39.7c0-14.8,9.4-24.5,23.6-24.5s20.4,6.8,21.8,17.4h-10.9c-1.4-4.7-5.4-7.4-11.1-7.4s-12.4,5.4-12.4,14.5,4.7,14.5,12.4,14.5,10.1-2.9,11.4-7.6h10.8c-1.7,10.6-10.5,17.5-22.3,17.5s-23.1-9.4-23.1-24.4Z"/>
    <path class="st0" d="M236.2,53.9c0-5.9,4.2-9.5,11.8-10.1l9-.7v-.5c0-3.1-1.9-4.8-5.4-4.8s-6.4,1.6-6.4,4.5h-8.2c0-7.2,6-12,15.1-12s14.5,5.2,14.5,14.3v18.7h-8.7l-.6-4.2c-1,2.9-5.2,5.1-10,5.1s-11-4-11-10.2ZM257,51.4v-1.7l-5,.4c-4.3.4-5.8,1.3-5.8,3.4s1.4,3.4,4.4,3.4,6.4-1.9,6.4-5.5Z"/>
    <path class="st0" d="M280.6,53.2c.1,2.2,1.8,3.6,4.8,3.6s4.5-1.1,4.5-2.8-.5-2-2.9-2.5l-5.9-1.3c-5.9-1.3-8.8-3.8-8.8-9.5s5.7-10.5,13.4-10.5,12.6,4.4,12.6,10.8h-9.3c0-2.2-1.3-3.6-3.7-3.6s-3.6,1.2-3.6,2.9,1.2,2.3,3.5,2.8l6,1.3c5.2,1.2,8.1,3.6,8.1,8.7s-5.8,11-14.1,11-13.8-4.5-13.8-10.9h9.3Z"/>
    <path class="st0" d="M307.4,63.3v-23.8h-6.1v-8.2h6.1v-9.9h9.9v9.9h6.1v8.2h-6.1v23.8h-9.9Z"/>
    <path class="st0" d="M334.8,53.2c.1,2.2,1.8,3.6,4.8,3.6s4.5-1.1,4.5-2.8-.5-2-2.9-2.5l-5.9-1.3c-5.9-1.3-8.8-3.8-8.8-9.5s5.7-10.5,13.4-10.5,12.6,4.4,12.6,10.8h-9.3c0-2.2-1.3-3.6-3.7-3.6s-3.6,1.2-3.6,2.9,1.2,2.3,3.5,2.8l6,1.3c5.2,1.2,8.1,3.6,8.1,8.7s-5.8,11-14.1,11-13.8-4.5-13.8-10.9h9.3Z"/>
  </g>
</svg>