<svg fill="none" height="24" viewBox="0 0 24 24" width="24" xmlns="http://www.w3.org/2000/svg"><g stroke="currentColor" stroke-width="1.5"><path d="m2.5 12c0-4.47834 0-6.71751 1.39124-8.10876 1.39125-1.39124 3.63042-1.39124 8.10876-1.39124 4.4783 0 6.7175 0 8.1088 1.39124 1.3912 1.39125 1.3912 3.63042 1.3912 8.10876 0 4.4783 0 6.7175-1.3912 8.1088-1.3913 1.3912-3.6305 1.3912-8.1088 1.3912-4.47834 0-6.71751 0-8.10876-1.3912-1.39124-1.3913-1.39124-3.6305-1.39124-8.1088z"/><path d="m15.5 9.17157c-1.6013-1.56209-4.1976-1.56209-5.79899 0-1.60135 1.56213-1.60135 4.09473 0 5.65683 1.60139 1.5621 4.19769 1.5621 5.79899 0" stroke-linecap="round"/></g></svg>