<svg fill="none" height="24" viewBox="0 0 24 24" width="24" xmlns="http://www.w3.org/2000/svg"><g stroke="currentColor" stroke-width="1.5"><path d="m2.5 12c0-4.47834 0-6.71751 1.39124-8.10876 1.39125-1.39124 3.63042-1.39124 8.10876-1.39124 4.4783 0 6.7175 0 8.1088 1.39124 1.3912 1.39125 1.3912 3.63042 1.3912 8.10876 0 4.4783 0 6.7175-1.3912 8.1088-1.3913 1.3912-3.6305 1.3912-8.1088 1.3912-4.47834 0-6.71751 0-8.10876-1.3912-1.39124-1.3913-1.39124-3.6305-1.39124-8.1088z"/><g stroke-linecap="round"><path d="m8.73244 10c-.34581-.5978-.99216-1-1.73244-1-1.10457 0-2 .89543-2 2v2c0 1.1046.89543 2 2 2 .74028 0 1.38663-.4022 1.73244-1"/><path d="m12 10.5v3m-1.5-1.5h3" stroke-linejoin="round"/><path d="m17.5 10.5v3m-1.5-1.5h3" stroke-linejoin="round"/></g></g></svg>