<svg fill="none" height="16" viewBox="0 0 16 16" width="16" xmlns="http://www.w3.org/2000/svg"><path clip-rule="evenodd" d="m8.17742 0c.42757 0 .77419.346618.77419.774194 0 .335696.19067.820826.64196 1.518396.32566.50338.72793 1.0329 1.17173 1.61705.1565.20605.3182.4189.4836.6398 1.207 1.6128 2.6059 3.63945 2.6059 5.85916 0 1.8207-.7031 3.2406-1.7972 4.196-1.0788.9422-2.49308 1.3954-3.88018 1.3954s-2.8014-.4532-3.88021-1.3954c-1.09408-.9554-1.79721-2.3753-1.79721-4.196 0-2.21971 1.39892-4.24636 2.60598-5.85916.16533-.2209.32703-.43375.48357-.6398.44378-.58415.84606-1.11367 1.17172-1.61705.45129-.69757.64196-1.1827.64196-1.518396 0-.427576.34661-.774194.77419-.774194zm0 2.95048c-.03824.06167-.07701.12274-.11611.18317-.36027.55688-.81467 1.15488-1.26966 1.75366-.14972.19703-.2995.39415-.44602.58991-1.24455 1.6629-2.29724 3.29733-2.29724 4.93138 0 1.3908.52267 2.3795 1.26731 3.0298.75989.6636 1.79721 1.0132 2.86172 1.0132s2.10178-.3496 2.86168-1.0132c.7447-.6503 1.2674-1.639 1.2674-3.0298 0-1.63405-1.0527-3.26848-2.2973-4.93138-.14651-.19576-.29629-.39288-.44601-.58991-.455-.59878-.90939-1.19678-1.26967-1.75366-.03909-.06043-.07786-.1215-.1161-.18317zm-2.06452 6.85597c.42758 0 .7742.34665.7742.77415 0 .2644.13996.5935.4184.872.27844.2784.60758.4184.87192.4184.42757 0 .77419.3466.77419.7742 0 .4275-.34662.7742-.77419.7742-.76792 0-1.47104-.3762-1.96679-.872-.49575-.4957-.87192-1.1988-.87192-1.9668 0-.4275.34662-.77415.77419-.77415z" fill="#000" fill-rule="evenodd"/></svg>