<?xml version="1.0" encoding="UTF-8"?>
<svg id="Layer_1" xmlns="http://www.w3.org/2000/svg" version="1.1" viewBox="0 0 24 24">
  <!-- Generator: Adobe Illustrator 29.3.1, SVG Export Plug-In . SVG Version: 2.1.0 Build 151)  -->
  <defs>
    <style>
      .st0, .st1 {
        fill: none;
      }

      .st1 {
        stroke: #000;
        stroke-linecap: round;
        stroke-linejoin: round;
        stroke-width: 2.2px;
      }
    </style>
  </defs>
  <path class="st0" d="M0,0h24v24H0V0Z"/>
  <g>
    <path class="st1" d="M16.6,14.8c1.2,1.2,3.2,1,4.6-.4,1.4-1.4,1.6-3.5.4-4.6-1.2-1.2-3.2-1-4.6.4-1.4,1.4-1.6,3.5-.4,4.6Z"/>
    <path class="st1" d="M13.3,9.3c-1.2-.5-2.8-.2-3.9.9-1.4,1.4-1.6,3.5-.4,4.6,1.2,1.2,3.3,1,4.7-.4.6-.6,1-1.3,1.1-2.1h-2.7"/>
    <path class="st1" d="M5.4,15.6h-1.6"/>
    <path class="st1" d="M6,9h-2.2"/>
    <path class="st1" d="M4.9,12.3H1.6"/>
  </g>
</svg>