<svg fill="none" height="24" viewBox="0 0 24 24" width="24" xmlns="http://www.w3.org/2000/svg"><g stroke="currentColor" stroke-linecap="round" stroke-width="1.5"><path d="m6.17481 10.3331c-1.20743.4076-1.95432.9708-1.95432 1.5929 0 .8482 1.38848 1.5869 3.43961 1.9708m0 0c-.76177.3855-1.21739.8746-1.21739 1.4069 0 1.2436 2.4873 2.2517 5.55559 2.2517.7901 0 1.5417-.0668 2.2222-.1873m-6.5604-3.4713c.95619.179 2.05638.281 3.2271.281 1.7074 0 3.2649-.2169 4.4444-.5734m1.1111-3.4802c-1.4117.4171-3.3792.6759-5.5555.6759-4.2956 0-7.77782-1.0082-7.77782-2.25183 0-.96029 2.07625-1.78018 4.99999-2.10393" stroke-linejoin="round"/><path d="m22 19.0699c0 1.6183-4.4772 2.9301-10 2.9301-5.52285 0-10-1.3118-10-2.9301 0-1.1504 1.70729-2.146 5-2.6255"/><g stroke-linejoin="round"><path d="m18.7591 8.78799c4.2153-1.09363 4.8174 5.46821-1.2044 7.65581"/><path d="m17.5582 2c-.7409.12346-2.1336.81481-1.778 2.59259s-.148 2.71605-.4443 2.96297"/><path d="m13.1128 2c-.7408.14815-2.1335.97778-1.7779 3.11111s-.148 2.70371-.4443 3"/></g></g></svg>