<svg fill="none" height="16" viewBox="0 0 16 16" width="16" xmlns="http://www.w3.org/2000/svg"><path d="m7.19792 3.06c-1.59358 0-2.88542 1.28978-2.88542 2.8808v6.4064c0 1.189-.96539 2.1528-2.15625 2.1528-1.190864 0-2.15625-.9638-2.15625-2.1528 0-.4308.349778-.78.78125-.78.43147 0 .78125.3492.78125.78 0 .3274.26583.5928.59375.5928s.59375-.2654.59375-.5928v-6.4064c0-2.45259 1.9914-4.4408 4.44792-4.4408 2.02717 0 3.73758 1.35396 4.27358 3.20551 2.5143.07834 4.5285 2.13797 4.5285 4.66729 0 .03887-.0028.07707-.0083.11441.0055.03733.0083.07553.0083.11439v4.1184c0 .4308-.3498.78-.7813.78h-8.02078c-.43148 0-.78125-.3492-.78125-.78v-4.1184c0-.43078.34977-.78.78125-.78 1.59357 0 2.88538-1.28978 2.88538-2.8808s-1.29181-2.8808-2.88538-2.8808zm7.24788 6.42719c-.0055-.03733-.0083-.07553-.0083-.11439 0-1.61285-1.2299-2.93891-2.8043-3.09436-.1532 2.03376-1.67833 3.68539-3.65403 4.03486v2.6267h2.44793v-1.7368c0-.4308.3498-.78.7812-.78.4315 0 .7813.3492.7813.78v1.7368h2.4479v-3.3384c0-.03886.0028-.07707.0083-.11441z" fill="currentColor"/></svg>