<svg fill="none" height="15" viewBox="0 0 15 15" width="15" xmlns="http://www.w3.org/2000/svg"><path d="m14.5 14.5v.5h.5v-.5zm0-14h.5v-.5h-.5zm-6 0v-.5h-.20711l-.14644.146447zm-8 8-.353553-.35355-.146447.14644v.20711zm0 6h-.5v.5h.5zm4-4-.22361.4472.0186.0093.01931.0077zm0-6v-.5c-.27614 0-.5.22386-.5.5zm6 0 .4642-.1857-.0077-.01931-.0093-.0186zm4.5 10v-14h-1v14zm-.5-14.5h-6v1h6zm-6.35355.146447-8.000003 8.000003.707106.7071 7.999997-7.999997zm-8.14645 8.353553v6h1v-6zm.5 6.5h14v-1h-14zm13.6464-14.853553-13.999953 13.999953.707106.7072 14.000047-14.000047zm-9.1464 10.353553v-6h-1v6zm-.5-5.5h6v-1h-6zm-.1857 5.9642 10 4 .3714-.9284-10-4zm5.7215-6.2785 4 10 .9284-.3714-4-10zm-1.98301-3.962093 2.00001 4.000003.8944-.44722-1.99999-3.999997zm-7.776397 8.223603 3.999997 1.99999.44722-.8944-4.000003-2.00001z" fill="currentColor"/></svg>