<svg fill="none" height="15" viewBox="0 0 15 15" width="15" xmlns="http://www.w3.org/2000/svg"><path d="m1.99997 10.5h5m-4.5-6h6.5c.82843 0 1.50003.67157 1.50003 1.5s-.6716 1.5-1.50003 1.5h-4.5m0-3v6m3-3h1c1.10457 0 2.00003.89543 2.00003 2 0 .5523.4477 1 1 1h1.5m-5.50003-10 1.34425 1.11046 1.69298-.41724.7293 1.58374 1.7063.35861-.0301 1.74334 1.3818 1.06344-.7835 1.55765.7835 1.55765-1.3818 1.06345.0301 1.7433-1.7063.3586-.7293 1.5838-1.69298-.4173-1.34425 1.1105-1.34425-1.1105-1.69293.4173-.72932-1.5838-1.70632-.3586.03007-1.7433-1.381744-1.06345.783494-1.55765-.783494-1.55765 1.381744-1.06344-.03007-1.74334 1.70632-.35861.72932-1.58374 1.69293.41724z" stroke="#000" stroke-linejoin="round"/></svg>