<svg fill="none" height="16" viewBox="0 0 16 16" width="16" xmlns="http://www.w3.org/2000/svg"><path d="m12.7116.261121c.182.144155.2884.365333.2884.599573v12.123306c0 .3491-.2342.6534-.5681.738l-8.5 2.1553c-.22405.0568-.46142.0057-.64346-.1384-.18204-.1442-.28844-.3653-.28844-.5996v-12.12335c0-.34905.23422-.65331.5681-.73797l8.5-2.155255c.2241-.0568116.4614-.005758.6435.138396zm-8.2116 3.348749v2.32339l7-1.88586v-2.21244zm7 2.01165-7 1.88586v2.61652l7-1.77489zm0 4.29568-7 1.7749v2.473l7-1.775z" fill="#000"/></svg>